<svg width="97" height="85" viewBox="0 0 97 85" fill="none" xmlns="http://www.w3.org/2000/svg">
<path d="M19.4399 1.07617V83.2988H77.2299V1.07617H19.4399ZM63.5428 56.7754L48.3349 54.123L33.127 56.7754L36.1686 52.7969L24.0023 43.5137L28.5647 42.1875L25.5231 35.5566L33.127 36.8828L34.6478 34.2305L40.731 39.5352L39.2102 27.5996L43.7725 28.9258L48.3349 22.2949L52.8973 28.9258L57.4596 27.5996L55.9388 39.5352L62.022 34.2305L63.5428 36.8828L71.1467 35.5566L68.1051 42.1875L72.6675 43.5137L60.5012 52.7969L63.5428 56.7754Z" fill="#EEF2FA"/>
<path d="M72.6674 43.5137L60.5011 52.7969L63.5427 56.7754L48.3348 54.123L33.1269 56.7754L36.1685 52.7969L24.0022 43.5137L28.5646 42.1875L25.523 35.5566L33.1269 36.8828L34.6477 34.2305L40.7309 39.5352L39.2101 27.5996L43.7724 28.9258L48.3348 22.2949L52.8972 28.9258L57.4595 27.5996L55.9387 39.5352L62.0219 34.2305L63.5427 36.8828L71.1466 35.5566L68.105 42.1875L72.6674 43.5137Z" fill="#E21743"/>
<path d="M19.4399 43.5137V83.2988H7.27358C3.91264 83.2988 1.19043 80.925 1.19043 77.9941V6.38086C1.19043 3.45002 3.91264 1.07617 7.27358 1.07617H19.4399V43.5137Z" fill="#E21743"/>
<path d="M95.4792 6.38086V77.9941C95.4792 80.925 92.757 83.2988 89.396 83.2988H77.2297V1.07617H89.396C92.757 1.07617 95.4792 3.45002 95.4792 6.38086Z" fill="#E21743"/>
<path d="M46.814 54.3883V64.7324H49.8555V54.3883L48.3348 54.123L46.814 54.3883Z" fill="#E21743"/>
<path d="M7.27358 77.9941C3.91264 77.9941 1.19043 75.6203 1.19043 72.6895V77.9941C1.19043 80.925 3.91264 83.2988 7.27358 83.2988H19.4399V77.9941H7.27358Z" fill="#B51135"/>
<path d="M89.396 83.2988C92.757 83.2988 95.4792 80.925 95.4792 77.9941V72.6895C95.4792 75.6203 92.757 77.9941 89.396 77.9941H77.2297V83.2988H89.396Z" fill="#B51135"/>
<path d="M77.2299 77.9941H19.4399V83.2988H77.2299V77.9941Z" fill="#CDD2E1"/>
<path d="M77.2299 1.07617H19.4399V6.38086H77.2299V1.07617Z" fill="#F7FAFF"/>
<path d="M89.396 6.38086C92.757 6.38086 95.4792 8.75471 95.4792 11.6855V6.38086C95.4792 3.45002 92.757 1.07617 89.396 1.07617H77.2297V6.38086H89.396Z" fill="#EA5172"/>
<path d="M7.27358 1.07617C3.91264 1.07617 1.19043 3.45002 1.19043 6.38086V11.6855C1.19043 8.75471 3.91264 6.38086 7.27358 6.38086H19.4399V1.07617H7.27358Z" fill="#EA5172"/>
<path d="M77.23 7.70703V1.07617" stroke="black" stroke-width="2" stroke-linejoin="round"/>
<path d="M77.23 13.0117V10.3594" stroke="black" stroke-width="2" stroke-linejoin="round"/>
<path d="M77.23 83.2988V43.5137V15.6641" stroke="black" stroke-width="2" stroke-linejoin="round"/>
<path d="M19.4399 70.0371V83.2988" stroke="black" stroke-width="2" stroke-linejoin="round"/>
<path d="M19.4399 1.07617V43.5137V67.3848" stroke="black" stroke-width="2" stroke-linejoin="round"/>
<path d="M72.6674 43.5137L68.105 42.1875L71.1466 35.5566L63.5427 36.8828L62.0219 34.2305L55.9387 39.5352L57.4595 27.5996L52.8972 28.9258L48.3348 22.2949L43.7724 28.9258L39.2101 27.5996L40.7309 39.5352L34.6477 34.2305L33.1269 36.8828L25.523 35.5566L28.5646 42.1875L24.0022 43.5137L36.1685 52.7969L33.1269 56.7754L48.3348 54.123L63.5427 56.7754L60.5011 52.7969L72.6674 43.5137Z" stroke="black" stroke-width="2" stroke-linejoin="round"/>
<path d="M48.335 54.123V64.7324" stroke="black" stroke-width="2" stroke-linejoin="round"/>
<path d="M83.313 83.2988H7.27358C3.91264 83.2988 1.19043 80.925 1.19043 77.9941V6.38086C1.19043 3.45002 3.91264 1.07617 7.27358 1.07617H10.3152" stroke="black" stroke-width="2" stroke-linejoin="round"/>
<path d="M19.4399 1.07617H89.3962C92.7571 1.07617 95.4793 3.45002 95.4793 6.38086V77.9941C95.4793 80.925 92.7571 83.2988 89.3962 83.2988H86.3546" stroke="black" stroke-width="2" stroke-linejoin="round"/>
<path d="M13.3567 1.07617H16.3983" stroke="black" stroke-width="2" stroke-linejoin="round"/>
</svg>
