<svg width="100" height="86" viewBox="0 0 100 86" fill="none" xmlns="http://www.w3.org/2000/svg">
<path d="M98.0673 7.04099V28.4859H1.23926V7.04099C1.23926 4.0789 4.03478 1.67975 7.48623 1.67975H91.8204C95.2718 1.67975 98.0673 4.0789 98.0673 7.04099Z" fill="#23272B"/>
<path d="M98.0673 28.4859H1.23926V57.9727H98.0673V28.4859Z" fill="#E21743"/>
<path d="M98.0673 57.9727V79.4177C98.0673 82.3798 95.2718 84.7789 91.8204 84.7789H7.48623C4.03478 84.7789 1.23926 82.3798 1.23926 79.4177V57.9727H98.0673Z" fill="#FFCE54"/>
<path d="M1.23926 23.1247V28.4859H1.8171C1.44228 26.7435 1.23926 24.9609 1.23926 23.1247Z" fill="#23272B"/>
<path d="M98.0673 28.4859V23.1247C98.0673 24.9609 97.8643 26.7435 97.4895 28.4859H98.0673Z" fill="#23272B"/>
<path d="M91.8204 79.4177H7.48623C4.03478 79.4177 1.23926 77.0185 1.23926 74.0565V79.4177C1.23926 82.3798 4.03478 84.7789 7.48623 84.7789H91.8204C95.2718 84.7789 98.0673 82.3798 98.0673 79.4177V74.0565C98.0673 77.0185 95.2718 79.4177 91.8204 79.4177Z" fill="#D79D44"/>
<path d="M91.8204 1.67975H7.48623C4.03478 1.67975 1.23926 4.0789 1.23926 7.04099V12.4022C1.23926 9.44014 4.03478 7.04099 7.48623 7.04099H91.8204C95.2718 7.04099 98.0673 9.44014 98.0673 12.4022V7.04099C98.0673 4.0789 95.2718 1.67975 91.8204 1.67975Z" fill="#555A66"/>
<path d="M85.5734 84.7789H7.48623C4.03478 84.7789 1.23926 82.3798 1.23926 79.4177V7.04099C1.23926 4.0789 4.03478 1.67975 7.48623 1.67975H10.6097" stroke="black" stroke-width="2" stroke-linejoin="round"/>
<path d="M19.9802 1.67975H91.8204C95.2719 1.67975 98.0674 4.0789 98.0674 7.04099V79.4177C98.0674 82.3798 95.2719 84.7789 91.8204 84.7789H88.6969" stroke="black" stroke-width="2" stroke-linejoin="round"/>
<path d="M13.7332 1.67975H16.8566" stroke="black" stroke-width="2" stroke-linejoin="round"/>
<path d="M87.1351 28.4859H1.23926" stroke="black" stroke-width="2" stroke-linejoin="round"/>
<path d="M98.0673 28.4859H90.2585" stroke="black" stroke-width="2" stroke-linejoin="round"/>
<path d="M12.1714 57.9727H98.0673" stroke="black" stroke-width="2" stroke-linejoin="round"/>
<path d="M1.23926 57.9727H9.04797" stroke="black" stroke-width="2" stroke-linejoin="round"/>
</svg>
