<svg width="98" height="84" viewBox="0 0 98 84" fill="none" xmlns="http://www.w3.org/2000/svg">
<path d="M97.3899 6.04099V78.4177C97.3899 81.3798 94.5944 83.7789 91.1429 83.7789H66.155V0.679749H91.1429C94.5944 0.679749 97.3899 3.0789 97.3899 6.04099Z" fill="#FF9933"/>
<path d="M66.155 0.679749H31.7966V83.7789H66.155V0.679749Z" fill="#EEF2FA"/>
<path d="M31.7966 0.679749V83.7789H6.80874C3.35729 83.7789 0.561768 81.3798 0.561768 78.4177V6.04099C0.561768 3.0789 3.35729 0.679749 6.80874 0.679749H31.7966Z" fill="#009E60"/>
<path d="M6.80874 78.4177C3.35729 78.4177 0.561768 76.0185 0.561768 73.0565V78.4177C0.561768 81.3798 3.35729 83.7789 6.80874 83.7789H31.7966V78.4177H6.80874Z" fill="#007145"/>
<path d="M66.155 78.4177H31.7966V83.7789H66.155V78.4177Z" fill="#CDD2E1"/>
<path d="M91.1429 83.7789C94.5944 83.7789 97.3899 81.3798 97.3899 78.4177V73.0565C97.3899 76.0185 94.5944 78.4177 91.1429 78.4177H66.155V83.7789H91.1429Z" fill="#D67116"/>
<path d="M91.1429 6.04099C94.5944 6.04099 97.3899 8.44014 97.3899 11.4022V6.04099C97.3899 3.0789 94.5944 0.679749 91.1429 0.679749H66.155V6.04099H91.1429Z" fill="#FFBA75"/>
<path d="M6.80874 0.679749C3.35729 0.679749 0.561768 3.0789 0.561768 6.04099V11.4022C0.561768 8.44014 3.35729 6.04099 6.80874 6.04099H31.7966V0.679749H6.80874Z" fill="#00E088"/>
<path d="M66.155 0.679749H31.7966V6.04099H66.155V0.679749Z" fill="#F7FAFF"/>
</svg>
