<svg width="100" height="86" viewBox="0 0 100 86" fill="none" xmlns="http://www.w3.org/2000/svg">
<path d="M92.5138 1.67975H8.17959C4.72948 1.67975 1.93262 4.08006 1.93262 7.04099V79.4177C1.93262 82.3786 4.72948 84.7789 8.17959 84.7789H92.5138C95.9639 84.7789 98.7607 82.3786 98.7607 79.4177V7.04099C98.7607 4.08006 95.9639 1.67975 92.5138 1.67975Z" fill="#006AA7"/>
<path d="M98.7607 36.5278H42.538V1.67975H26.9205V36.5278H1.93262V49.9309H26.9205V84.7789H42.538V49.9309H98.7607V36.5278Z" fill="#FFD45D"/>
<path d="M92.5138 79.4177H8.17959C4.72814 79.4177 1.93262 77.0185 1.93262 74.0565V79.4177C1.93262 82.3798 4.72814 84.7789 8.17959 84.7789H92.5138C95.9652 84.7789 98.7607 82.3798 98.7607 79.4177V74.0565C98.7607 77.0185 95.9652 79.4177 92.5138 79.4177Z" fill="#004870"/>
<path d="M92.5138 1.67975H8.17959C4.72814 1.67975 1.93262 4.0789 1.93262 7.04099V12.4022C1.93262 9.44014 4.72814 7.04099 8.17959 7.04099H92.5138C95.9652 7.04099 98.7607 9.44014 98.7607 12.4022V7.04099C98.7607 4.0789 95.9652 1.67975 92.5138 1.67975Z" fill="#008BDB"/>
<path d="M42.5379 1.67975H26.9204V7.04099H42.5379V1.67975Z" fill="#FFE6A1"/>
<path d="M42.5379 79.4177H26.9204V84.7789H42.5379V79.4177Z" fill="#E0971F"/>
<path d="M90.952 36.5278H42.538V1.67975H26.9205V36.5278H1.93262V49.9309H26.9205V84.7789H42.538V49.9309H98.7607V36.5278H94.0755" stroke="black" stroke-width="2" stroke-linejoin="round"/>
<path d="M86.2668 84.7789H8.17959C4.72814 84.7789 1.93262 82.3798 1.93262 79.4177V7.04099C1.93262 4.0789 4.72814 1.67975 8.17959 1.67975H11.3031" stroke="black" stroke-width="2" stroke-linejoin="round"/>
<path d="M20.6736 1.67975H92.5138C95.9653 1.67975 98.7608 4.0789 98.7608 7.04099V79.4177C98.7608 82.3798 95.9653 84.7789 92.5138 84.7789H89.3903" stroke="black" stroke-width="2" stroke-linejoin="round"/>
<path d="M14.4265 1.67975H17.55" stroke="black" stroke-width="2" stroke-linejoin="round"/>
</svg>
