<svg width="97" height="85" viewBox="0 0 97 85" fill="none" xmlns="http://www.w3.org/2000/svg">
<path d="M18.2493 35.5566L15.2077 38.209L16.7285 42.1875L12.1662 39.5352L7.6038 42.1875L9.12458 38.209L6.08301 35.5566H10.6454L12.1662 31.5781L13.6869 35.5566H18.2493Z" fill="#E9EDF5"/>
<path d="M34.9781 35.5566L31.9365 38.209L33.4573 42.1875L28.8949 39.5352L24.3326 42.1875L25.8533 38.209L22.8118 35.5566H27.3741L28.8949 31.5781L30.4157 35.5566H34.9781Z" fill="#E9EDF5"/>
<path d="M51.7068 35.5566L48.6653 38.209L50.186 42.1875L45.6237 39.5352L41.0613 42.1875L42.5821 38.209L39.5405 35.5566H44.1029L45.6237 31.5781L47.1445 35.5566H51.7068Z" fill="#E9EDF5"/>
<path d="M25.8533 22.2949L22.8117 24.9473L24.3325 28.9258L19.7702 26.2734L15.2078 28.9258L16.7286 24.9473L13.687 22.2949H18.2494L19.7702 18.3164L21.291 22.2949H25.8533Z" fill="#E9EDF5"/>
<path d="M42.5821 22.2949L39.5405 24.9473L41.0613 28.9258L36.4989 26.2734L31.9366 28.9258L33.4573 24.9473L30.4158 22.2949H34.9781L36.4989 18.3164L38.0197 22.2949H42.5821Z" fill="#E9EDF5"/>
<path d="M51.7068 9.0332L48.6653 11.6855L50.186 15.6641L45.6237 13.0117L41.0613 15.6641L42.5821 11.6855L39.5405 9.0332H44.1029L45.6237 5.05469L47.1445 9.0332H51.7068Z" fill="#E9EDF5"/>
<path d="M34.9781 9.0332L31.9365 11.6855L33.4573 15.6641L28.8949 13.0117L24.3326 15.6641L25.8533 11.6855L22.8118 9.0332H27.3741L28.8949 5.05469L30.4157 9.0332H34.9781Z" fill="#E9EDF5"/>
<path d="M18.2493 9.0332L15.2077 11.6855L16.7285 15.6641L12.1662 13.0117L7.6038 15.6641L9.12458 11.6855L6.08301 9.0332H10.6454L12.1662 5.05469L13.6869 9.0332H18.2493Z" fill="#E9EDF5"/>
<path d="M95.8096 71.3633H1.52075V77.9941H95.8096V71.3633Z" fill="#E9EDF5"/>
<path d="M95.8096 58.1016H1.52075V64.7324H95.8096V58.1016Z" fill="#E9EDF5"/>
<path d="M95.8096 46.166V51.4707H1.52075V46.166H16.7286H33.4573H56.2691H95.8096Z" fill="#E9EDF5"/>
<path d="M95.8095 32.9043H56.269V39.5352H95.8095V32.9043Z" fill="#E9EDF5"/>
<path d="M95.8095 19.6426H56.269V26.2734H95.8095V19.6426Z" fill="#E9EDF5"/>
<path d="M95.8095 6.38086H56.269V13.0117H95.8095V6.38086Z" fill="#E9EDF5"/>
<path d="M1.52075 77.9941H95.8096C95.8096 80.925 93.0874 83.2988 89.7264 83.2988H7.6039C4.24296 83.2988 1.52075 80.925 1.52075 77.9941Z" fill="#E21743"/>
<path d="M95.8096 64.7324H1.52075V71.3633H95.8096V64.7324Z" fill="#E21743"/>
<path d="M95.8096 51.4707H1.52075V58.1016H95.8096V51.4707Z" fill="#E21743"/>
<path d="M95.8095 39.5352H56.269V46.166H95.8095V39.5352Z" fill="#E21743"/>
<path d="M95.8095 26.2734H56.269V32.9043H95.8095V26.2734Z" fill="#E21743"/>
<path d="M95.8095 13.0117H56.269V19.6426H95.8095V13.0117Z" fill="#E21743"/>
<path d="M95.8095 6.38086H56.269V1.07617H89.7264C93.0873 1.07617 95.8095 3.45002 95.8095 6.38086Z" fill="#E21743"/>
<path d="M28.8949 1.07617H7.6039C4.24296 1.07617 1.52075 3.45002 1.52075 6.38086V46.166H56.2691V1.07617H28.8949ZM27.3741 9.0332L28.8949 5.05469L30.4157 9.0332H34.9781L31.9365 11.6855L33.4573 15.6641L28.8949 13.0117L24.3326 15.6641L25.8534 11.6855L22.8118 9.0332H27.3741ZM10.6455 9.0332L12.1663 5.05469L13.6871 9.0332H18.2494L15.2078 11.6855L16.7286 15.6641L12.1663 13.0117L7.6039 15.6641L9.12469 11.6855L6.08312 9.0332H10.6455ZM16.7286 42.1875L12.1663 39.5352L7.6039 42.1875L9.12469 38.209L6.08312 35.5566H10.6455L12.1663 31.5781L13.6871 35.5566H18.2494L15.2078 38.209L16.7286 42.1875ZM15.2078 28.9258L16.7286 24.9473L13.6871 22.2949H18.2494L19.7702 18.3164L21.291 22.2949H25.8534L22.8118 24.9473L24.3326 28.9258L19.7702 26.2734L15.2078 28.9258ZM33.4573 42.1875L28.8949 39.5352L24.3326 42.1875L25.8534 38.209L22.8118 35.5566H27.3741L28.8949 31.5781L30.4157 35.5566H34.9781L31.9365 38.209L33.4573 42.1875ZM31.9365 28.9258L33.4573 24.9473L30.4157 22.2949H34.9781L36.4989 18.3164L38.0197 22.2949H42.582L39.5404 24.9473L41.0612 28.9258L36.4989 26.2734L31.9365 28.9258ZM50.186 42.1875L45.6236 39.5352L41.0612 42.1875L42.582 38.209L39.5404 35.5566H44.1028L45.6236 31.5781L47.1444 35.5566H51.7067L48.6652 38.209L50.186 42.1875ZM48.6652 11.6855L50.186 15.6641L45.6236 13.0117L41.0612 15.6641L42.582 11.6855L39.5404 9.0332H44.1028L45.6236 5.05469L47.1444 9.0332H51.7067L48.6652 11.6855Z" fill="#2A54C4"/>
<path d="M95.8096 26.2734V22.2949C95.8096 23.6476 95.6879 24.9738 95.4902 26.2734H95.8096Z" fill="#DCE1EB"/>
<path d="M7.604 42.1875L9.42895 41.1266C9.07917 40.7685 8.74459 40.4104 8.42523 40.0391L7.604 42.1875Z" fill="#BEC3D2"/>
<path d="M15.7553 46.166H1.52075V51.4707H34.9781C27.8152 51.4707 21.1997 49.508 15.7553 46.166Z" fill="#DCE1EB"/>
<path d="M89.3463 39.5352H95.8096V32.9043H93.5132C92.4487 35.2781 91.0343 37.5061 89.3311 39.5352H89.3463Z" fill="#DCE1EB"/>
<path d="M7.6039 83.2988H89.7264C93.0874 83.2988 95.8096 80.925 95.8096 77.9941H1.52075C1.52075 80.925 4.24296 83.2988 7.6039 83.2988Z" fill="#B51135"/>
<path d="M93.5132 32.9043H95.8096V26.2734H95.4902C95.1252 28.581 94.4561 30.7957 93.5132 32.9043Z" fill="#B51135"/>
<path d="M9.42885 41.1266L7.6039 42.1875L8.42513 40.0391C4.09088 35.119 1.52075 28.9788 1.52075 22.2949V46.166H15.7553C13.4133 44.7205 11.2842 43.0363 9.42885 41.1266Z" fill="#2448A8"/>
<path d="M45.1216 6.38086H46.1253L45.6234 5.05469L45.1216 6.38086Z" fill="#F7FAFF"/>
<path d="M28.3931 6.38086H29.3968L28.8949 5.05469L28.3931 6.38086Z" fill="#F7FAFF"/>
<path d="M11.6643 6.38086H12.668L12.1662 5.05469L11.6643 6.38086Z" fill="#F7FAFF"/>
<path d="M1.52075 72.6895V77.9941H7.6039C4.24296 77.9941 1.52075 75.6203 1.52075 72.6895Z" fill="#9DA3B5"/>
<path d="M89.7266 77.9941H95.8097V72.6895C95.8097 75.6203 93.0875 77.9941 89.7266 77.9941Z" fill="#9DA3B5"/>
<path d="M7.6039 77.9941H1.52075C1.52075 80.925 4.24296 83.2988 7.6039 83.2988H89.7264C93.0874 83.2988 95.8096 80.925 95.8096 77.9941H7.6039Z" fill="#750A26"/>
<path d="M83.6433 83.2988H7.6039C4.24296 83.2988 1.52075 80.925 1.52075 77.9941V6.38086C1.52075 3.45002 4.24296 1.07617 7.6039 1.07617H10.6455" stroke="black" stroke-width="2" stroke-linejoin="round"/>
<path d="M19.7703 1.07617H89.7265C93.0874 1.07617 95.8097 3.45002 95.8097 6.38086V77.9941C95.8097 80.925 93.0874 83.2988 89.7265 83.2988H86.6849" stroke="black" stroke-width="2" stroke-linejoin="round"/>
<path d="M13.687 1.07617H16.7286" stroke="black" stroke-width="2" stroke-linejoin="round"/>
<path d="M88.2056 6.38086H91.2471" stroke="black" stroke-width="2" stroke-linejoin="round"/>
<path d="M56.269 6.38086H85.164" stroke="black" stroke-width="2" stroke-linejoin="round"/>
<path d="M56.269 13.0117H95.8095" stroke="black" stroke-width="2" stroke-linejoin="round"/>
<path d="M56.269 19.6426H95.8095" stroke="black" stroke-width="2" stroke-linejoin="round"/>
<path d="M56.269 26.2734H95.8095" stroke="black" stroke-width="2" stroke-linejoin="round"/>
<path d="M56.269 32.9043H95.8095" stroke="black" stroke-width="2" stroke-linejoin="round"/>
<path d="M56.269 39.5352H95.8095" stroke="black" stroke-width="2" stroke-linejoin="round"/>
<path d="M66.9146 46.166H95.8095" stroke="black" stroke-width="2" stroke-linejoin="round"/>
<path d="M60.8315 46.166H63.8731" stroke="black" stroke-width="2" stroke-linejoin="round"/>
<path d="M1.52075 51.4707H95.8096" stroke="black" stroke-width="2" stroke-linejoin="round"/>
<path d="M1.52075 58.1016H95.8096" stroke="black" stroke-width="2" stroke-linejoin="round"/>
<path d="M1.52075 64.7324H95.8096" stroke="black" stroke-width="2" stroke-linejoin="round"/>
<path d="M9.12476 71.3633H95.8097" stroke="black" stroke-width="2" stroke-linejoin="round"/>
<path d="M1.52075 71.3633H6.08312" stroke="black" stroke-width="2" stroke-linejoin="round"/>
<path d="M1.52075 77.9941H95.8096" stroke="black" stroke-width="2" stroke-linejoin="round"/>
<path d="M1.52075 46.166H16.7286H33.4573H56.2691V39.5352V32.9043V26.2734V19.6426V13.0117V6.38086V1.07617" stroke="black" stroke-width="2" stroke-linejoin="round"/>
<path d="M45.6237 5.05469L47.1445 9.0332H51.7068L48.6653 11.6855L50.186 15.6641L45.6237 13.0117L41.0613 15.6641L42.5821 11.6855L39.5405 9.0332H44.1029L45.6237 5.05469Z" stroke="black" stroke-width="2" stroke-linejoin="round"/>
<path d="M28.8949 5.05469L30.4157 9.0332H34.9781L31.9365 11.6855L33.4573 15.6641L28.8949 13.0117L24.3326 15.6641L25.8533 11.6855L22.8118 9.0332H27.3741L28.8949 5.05469Z" stroke="black" stroke-width="2" stroke-linejoin="round"/>
<path d="M12.1662 5.05469L13.6869 9.0332H18.2493L15.2077 11.6855L16.7285 15.6641L12.1662 13.0117L7.6038 15.6641L9.12458 11.6855L6.08301 9.0332H10.6454L12.1662 5.05469Z" stroke="black" stroke-width="2" stroke-linejoin="round"/>
<path d="M36.4989 18.3164L38.0197 22.2949H42.5821L39.5405 24.9473L41.0613 28.9258L36.4989 26.2734L31.9366 28.9258L33.4573 24.9473L30.4158 22.2949H34.9781L36.4989 18.3164Z" stroke="black" stroke-width="2" stroke-linejoin="round"/>
<path d="M19.7702 18.3164L21.291 22.2949H25.8533L22.8117 24.9473L24.3325 28.9258L19.7702 26.2734L15.2078 28.9258L16.7286 24.9473L13.687 22.2949H18.2494L19.7702 18.3164Z" stroke="black" stroke-width="2" stroke-linejoin="round"/>
<path d="M45.6237 31.5781L47.1445 35.5566H51.7068L48.6653 38.209L50.186 42.1875L45.6237 39.5352L41.0613 42.1875L42.5821 38.209L39.5405 35.5566H44.1029L45.6237 31.5781Z" stroke="black" stroke-width="2" stroke-linejoin="round"/>
<path d="M28.8949 31.5781L30.4157 35.5566H34.9781L31.9365 38.209L33.4573 42.1875L28.8949 39.5352L24.3326 42.1875L25.8533 38.209L22.8118 35.5566H27.3741L28.8949 31.5781Z" stroke="black" stroke-width="2" stroke-linejoin="round"/>
<path d="M12.1662 31.5781L13.6869 35.5566H18.2493L15.2077 38.209L16.7285 42.1875L12.1662 39.5352L7.6038 42.1875L9.12458 38.209L6.08301 35.5566H10.6454L12.1662 31.5781Z" stroke="black" stroke-width="2" stroke-linejoin="round"/>
</svg>
