<svg width="24" height="24" viewBox="0 0 24 24" fill="none" xmlns="http://www.w3.org/2000/svg">
<rect width="24" height="24" rx="4" fill="#1E1D4B"/>
<g clip-path="url(#clip0_36_1596)">
<path d="M7.72252 19.705C7.4998 19.6065 7.25807 19.537 7.05754 19.4039C6.64787 19.1318 6.39845 18.7376 6.34006 18.2338C6.32603 18.1132 6.32014 17.9912 6.32014 17.8701C6.31878 16.0646 6.32603 14.2596 6.31516 12.4541C6.31245 11.9752 6.46002 11.5659 6.76285 11.2178C7.02676 10.9143 7.37939 10.7605 7.78815 10.7006C7.78815 10.6459 7.78815 10.5911 7.78815 10.5363C7.78634 9.68993 7.77593 8.8436 7.78589 7.99726C7.79132 7.54278 7.90177 7.1012 8.06519 6.68033C8.27975 6.1287 8.59255 5.6337 9.01399 5.22066C9.58843 4.65705 10.2638 4.27579 11.0551 4.13074C11.3104 4.08331 11.5707 4.04049 11.8287 4.04187C12.653 4.04648 13.4343 4.24033 14.1188 4.72244C14.7683 5.17968 15.2767 5.76723 15.594 6.51687C15.7552 6.89767 15.8833 7.2863 15.9023 7.6998C15.9308 8.31268 15.9426 8.92648 15.9552 9.54028C15.962 9.88194 15.9598 10.2236 15.9543 10.5653C15.9525 10.6758 15.9838 10.7209 16.0978 10.7416C16.7003 10.8512 17.1833 11.3066 17.3436 11.92C17.4047 12.1543 17.4242 12.4053 17.4251 12.6489C17.4319 14.3521 17.4255 16.0554 17.4305 17.7586C17.4319 18.2578 17.3305 18.721 17.0095 19.1073C16.7533 19.4154 16.4197 19.6051 16.0254 19.6765C16.0046 19.6802 15.9856 19.6949 15.9657 19.7046H7.72252V19.705ZM13.92 10.6772C13.9223 9.87688 13.9291 9.07613 13.9255 8.27584C13.9241 7.94109 13.8666 7.61738 13.7249 7.30657C13.3089 6.39439 12.3995 5.95372 11.4869 6.12271C10.5114 6.30367 9.81657 7.17441 9.81838 8.15796C9.81974 8.96378 9.81748 9.76959 9.81702 10.5754C9.81702 10.6145 9.8211 10.6541 9.82336 10.6937C9.84554 10.6988 9.85958 10.7048 9.87361 10.7048C11.2122 10.7039 12.5507 10.7025 13.8893 10.7011C13.8992 10.6933 13.9096 10.685 13.9196 10.6772H13.92ZM11.8436 19.0374C13.127 19.0374 14.4098 19.0387 15.6927 19.0351C15.824 19.0351 15.9643 19.0286 16.0843 18.9821C16.5786 18.7924 16.799 18.448 16.8017 17.8931C16.8108 16.0936 16.8076 14.2937 16.8008 12.4942C16.8004 12.3289 16.7705 12.1502 16.7044 12.001C16.5043 11.5511 16.1327 11.3674 15.6601 11.3674C13.2293 11.3674 10.7984 11.3674 8.36757 11.3679C8.20235 11.3679 8.03712 11.3692 7.8728 11.3817C7.35178 11.4208 6.97697 11.9025 6.97606 12.3519C6.97153 14.2536 6.97244 16.1553 6.97289 18.057C6.97289 18.1201 6.98647 18.1846 7.00186 18.2463C7.11594 18.7127 7.52606 19.0489 8.05478 19.0424C9.31773 19.0268 10.5807 19.0374 11.8441 19.0374H11.8436ZM15.3002 10.7011C15.3002 9.92477 15.312 9.165 15.2948 8.40662C15.2866 8.05344 15.2554 7.69428 15.1771 7.35123C14.9385 6.30506 14.3179 5.54114 13.3868 5.05904C12.701 4.70402 11.9627 4.61929 11.2013 4.76987C10.1244 4.98306 9.35304 5.60791 8.83473 6.57581C8.61337 6.98884 8.46263 7.43319 8.45041 7.90056C8.42732 8.78189 8.44226 9.6646 8.44181 10.5464C8.44181 10.5961 8.44181 10.6459 8.44181 10.697H9.1611C9.1611 10.6307 9.1611 10.5759 9.1611 10.5206C9.1611 9.77097 9.15884 9.02134 9.16291 8.27216C9.16382 8.0912 9.17333 7.90885 9.20003 7.73065C9.30822 7.01325 9.66176 6.4326 10.2158 5.9901C10.9202 5.42695 11.7368 5.30861 12.5819 5.52457C13.3537 5.72165 13.9187 6.22355 14.2822 6.95063C14.4854 7.35676 14.571 7.79328 14.5773 8.24269C14.5882 9.01259 14.5805 9.78248 14.5805 10.5524C14.5805 10.6016 14.5805 10.6509 14.5805 10.702H15.3002V10.7011Z" fill="#E34EB9"/>
<path d="M12.2015 16.4756C12.2015 16.7666 12.2015 17.0465 12.2015 17.3265C12.2015 17.4628 12.1698 17.5973 12.0521 17.6654C11.9679 17.7142 11.8466 17.7464 11.7574 17.7239C11.6406 17.6944 11.5474 17.5945 11.546 17.4504C11.5438 17.1653 11.5483 16.8798 11.541 16.5948C11.5397 16.5497 11.5008 16.4829 11.4623 16.4654C11.0313 16.2716 10.7701 15.9562 10.6977 15.4708C10.6054 14.8524 11.0961 14.2584 11.6257 14.1585C12.2812 14.0351 12.947 14.5181 13.0254 15.1651C13.1023 15.8028 12.6945 16.3158 12.2015 16.476V16.4756ZM11.8543 15.8493C12.1666 15.8733 12.3884 15.6044 12.3893 15.3129C12.3903 15.0569 12.1463 14.7889 11.8493 14.8055C11.5496 14.822 11.3396 15.0283 11.3306 15.3304C11.3238 15.5565 11.5759 15.9014 11.8543 15.8498V15.8493Z" fill="#E34EB9"/>
</g>
<defs>
<clipPath id="clip0_36_1596">
<rect width="11.1158" height="15.6632" fill="white" transform="translate(6.31543 4.0421)"/>
</clipPath>
</defs>
</svg>
