<svg width="24" height="24" viewBox="0 0 24 24" fill="none" xmlns="http://www.w3.org/2000/svg">
<rect width="24" height="24" rx="4" fill="#1E1D4B"/>
<g clip-path="url(#clip0_36_1615)">
<path d="M3.28416 5.88645C3.38769 5.63961 3.51364 5.41158 3.75208 5.26374C3.96363 5.13292 4.1931 5.05542 4.43872 5.05542C9.34737 5.05273 14.256 5.05138 19.1647 5.05542C19.5376 5.05542 19.8831 5.14502 20.1646 5.43084C20.3883 5.65753 20.4537 5.9317 20.4568 6.21977C20.468 7.25912 20.4604 8.29848 20.4613 9.33784C20.4622 10.0408 19.9315 10.4605 19.3417 10.4802C18.7613 10.4995 18.18 10.4843 17.5745 10.4843V10.6854C17.5745 13.3676 17.5745 16.0502 17.5745 18.7324C17.5745 19.0697 17.4476 19.1952 17.1066 19.1952C13.6124 19.1952 10.1183 19.192 6.62368 19.1996C6.25078 19.2005 6.16607 19.0231 6.16652 18.7355C6.17145 16.0534 6.16965 13.3707 6.16965 10.6886V10.4865C6.00606 10.4865 5.85143 10.487 5.69681 10.4865C5.24413 10.4847 4.791 10.4807 4.33832 10.4816C3.92239 10.4825 3.39083 10.1133 3.30836 9.66085C3.30702 9.65323 3.29178 9.6483 3.28326 9.64203C3.28326 8.38987 3.28326 7.13816 3.28326 5.88601L3.28416 5.88645ZM16.899 8.16677C16.8901 8.15736 16.8811 8.14796 16.8717 8.139H16.19C16.19 8.22412 16.19 8.29087 16.19 8.35807C16.19 10.8104 16.19 13.2628 16.19 15.7151C16.19 16.0677 16.0762 16.1824 15.7284 16.1815C15.4859 16.181 15.2497 16.2191 15.0444 16.3517C14.6872 16.5824 14.5411 16.9211 14.5541 17.3431C14.5653 17.7015 14.4532 17.8059 14.0969 17.8059C12.6102 17.8059 11.1236 17.8059 9.63735 17.8059C9.57595 17.8059 9.51455 17.8005 9.45359 17.7974C9.316 17.7898 9.22053 17.7136 9.19319 17.5873C9.16361 17.4493 9.15375 17.3042 9.15733 17.1626C9.16719 16.7769 8.82701 16.3705 8.52627 16.2872C8.36089 16.2415 8.18475 16.2317 8.01219 16.2178C7.72714 16.1945 7.55055 16.1143 7.55144 15.7662C7.55817 13.2914 7.55503 10.8167 7.55503 8.34194V8.13989H6.87332C6.86436 8.1493 6.85495 8.15826 6.84598 8.16767C6.84419 8.20127 6.84105 8.23442 6.84105 8.26802C6.84105 11.6419 6.84105 15.0158 6.84105 18.3901C6.84105 18.4327 6.84733 18.4752 6.85002 18.516H16.9031C16.9031 18.4618 16.9031 18.4179 16.9031 18.3735C16.9031 15.0109 16.9031 11.6477 16.9031 8.28504C16.9031 8.24607 16.8999 8.20709 16.8981 8.16812L16.899 8.16677ZM10.2272 8.10943H8.24391V15.5399C8.69255 15.5502 9.05335 15.7411 9.34647 16.0327C9.64049 16.3253 9.81215 16.6958 9.83456 17.1263H13.8769C13.9414 16.6949 14.0906 16.3195 14.4053 16.0077C14.7186 15.6972 15.1089 15.5821 15.5069 15.5028V8.10943H13.4856L13.4103 8.12466C13.4331 8.14034 13.456 8.15647 13.4784 8.17215C13.7742 8.42527 14.1162 8.64075 14.3564 8.93823C14.9817 9.71371 15.1869 10.6111 14.9942 11.5971C14.8373 12.399 14.4133 13.0334 13.7733 13.5159C13.0347 14.0732 12.1863 14.2546 11.2795 14.0978C10.4714 13.9581 9.81753 13.545 9.31913 12.8891C8.9664 12.425 8.75844 11.9076 8.6809 11.327C8.60785 10.7822 8.68404 10.2674 8.88438 9.7621C9.1654 9.05426 9.64811 8.52248 10.2958 8.13272C10.3079 8.12645 10.3195 8.12018 10.3316 8.11391C10.2967 8.11212 10.2612 8.11032 10.2263 8.10853L10.2272 8.10943ZM6.16248 9.81003V8.10226C5.86129 8.10226 5.56638 8.10226 5.27191 8.10226C5.11684 8.10226 5.0402 8.01176 4.98552 7.87736C4.93487 7.75327 4.96893 7.65784 5.04468 7.56063C5.14373 7.43295 5.28088 7.43474 5.42161 7.43474C9.72027 7.43519 14.0194 7.43519 18.318 7.43519C18.3629 7.43519 18.4122 7.42444 18.4511 7.43922C18.5309 7.46968 18.6224 7.49836 18.6788 7.55704C18.7716 7.65381 18.7806 7.78284 18.7263 7.90783C18.6676 8.04268 18.5605 8.10674 18.4131 8.10629C18.1361 8.1054 17.8586 8.10629 17.5866 8.10629V9.81362C18.1737 9.81362 18.7492 9.81765 19.3251 9.81182C19.6008 9.80914 19.7908 9.60395 19.7908 9.33067C19.7908 8.28594 19.7908 7.24076 19.7908 6.19602C19.7908 5.98098 19.6474 5.79103 19.4479 5.75564C19.3292 5.73458 19.2068 5.72473 19.0858 5.72473C14.2896 5.72338 9.49303 5.72338 4.69688 5.72338C4.61306 5.72338 4.5288 5.71622 4.44544 5.72338C4.15994 5.74892 3.95108 5.89138 3.95242 6.11717C3.96004 7.21253 3.96094 8.30744 3.95108 9.4028C3.94929 9.61246 4.16801 9.8051 4.3316 9.80734C4.93935 9.81541 5.54756 9.81048 6.16338 9.81048L6.16248 9.81003ZM11.8447 8.43512C10.4038 8.37823 9.35499 9.61336 9.32496 10.8597C9.2891 12.356 10.4732 13.4742 11.8156 13.4912C13.162 13.5083 14.4972 12.4299 14.3887 10.7257C14.3161 9.58648 13.2978 8.38136 11.8447 8.43557V8.43512Z" fill="#E3964E"/>
<path d="M13.3946 11.2856C13.3054 11.4263 13.2413 11.5522 13.1539 11.6593C13.0594 11.7753 12.8169 11.7955 12.7187 11.7139C12.5632 11.5845 12.5377 11.4115 12.6309 11.2458C12.6824 11.1544 12.7317 11.05 12.7403 10.9478C12.7586 10.7324 12.6618 10.6186 12.4928 10.615C12.31 10.6114 12.1728 10.7471 12.1773 10.9523C12.184 11.2494 12.0841 11.502 11.8721 11.7023C11.3966 12.1516 10.6709 12.0325 10.3612 11.3878C10.3406 11.3452 10.2882 11.2964 10.2442 11.2897C10.0654 11.2614 9.94216 11.1629 9.92692 11.015C9.90451 10.7951 9.96905 10.6911 10.1909 10.6387C10.2976 10.6136 10.346 10.5514 10.3962 10.4667C10.4652 10.3502 10.5396 10.2337 10.6306 10.1338C10.7462 10.0071 10.9636 10.0088 11.0913 10.1195C11.2298 10.2396 11.2455 10.3964 11.1415 10.5581C11.0716 10.667 10.9914 10.7736 10.9466 10.8927C10.8775 11.0782 11.0649 11.3013 11.2599 11.2856C11.397 11.2744 11.4974 11.153 11.5032 10.9895C11.5126 10.7342 11.5808 10.5016 11.7354 10.2924C11.899 10.0711 12.1078 9.96001 12.3835 9.94164C12.8339 9.91207 13.1374 10.1074 13.3283 10.5057C13.3503 10.5514 13.4049 10.6033 13.4511 10.611C13.6936 10.6508 13.8056 10.744 13.8101 10.9299C13.8141 11.1136 13.6649 11.2574 13.4399 11.2852C13.413 11.2883 13.3857 11.2856 13.3933 11.2856H13.3946Z" fill="#E3964E"/>
</g>
<defs>
<clipPath id="clip0_36_1615">
<rect width="17.1789" height="14.1474" fill="white" transform="translate(3.28418 5.05263)"/>
</clipPath>
</defs>
</svg>
