<svg width="24" height="24" viewBox="0 0 24 24" fill="none" xmlns="http://www.w3.org/2000/svg">
<rect width="24" height="24" rx="4" fill="#1E1D4B"/>
<g clip-path="url(#clip0_36_1604)">
<path d="M14.0929 4.29474C14.1939 4.38068 14.3011 4.45997 14.3947 4.55344C15.2708 5.42966 16.1439 6.30898 17.0201 7.18564C17.1251 7.29063 17.1793 7.40403 17.1793 7.55686C17.1767 11.0396 17.1776 14.5228 17.1758 18.0055C17.1758 18.0914 17.1736 18.1889 17.1352 18.2611C17.0765 18.3714 16.9821 18.448 16.8365 18.4471C16.2758 18.4423 15.7151 18.4454 15.1544 18.4454C15.1028 18.4454 15.0511 18.4454 14.9823 18.4454C14.9823 18.6536 14.9823 18.852 14.9823 19.05C14.9823 19.3973 14.9845 19.7446 14.9819 20.0919C14.9792 20.4069 14.73 20.5593 14.4609 20.3994C14.1079 20.1894 13.7629 19.9661 13.4201 19.7402C13.3248 19.6773 13.2582 19.6755 13.1616 19.7393C12.8312 19.9568 12.4968 20.1681 12.158 20.3719C11.835 20.5659 11.6294 20.4481 11.6277 20.0747C11.6255 19.5852 11.6277 19.0961 11.6263 18.6066C11.6263 18.5566 11.614 18.5065 11.6074 18.4564C11.5972 18.4547 11.5871 18.4529 11.5769 18.4511C10.6598 18.4494 9.743 18.4471 8.82582 18.4463C8.21259 18.4454 7.59937 18.4339 6.98659 18.4516C6.7135 18.4587 6.56792 18.3041 6.56836 18.0347C6.5763 14.3518 6.57365 10.6693 6.57365 6.9863C6.57365 6.24475 6.57895 5.50275 6.57013 4.76076C6.56792 4.56895 6.59527 4.4077 6.76247 4.29474C9.2061 4.29474 11.6493 4.29474 14.0929 4.29474ZM7.21114 4.92998V17.8044H11.6383C11.5659 17.2595 11.7336 16.7124 11.4927 16.1808C11.4022 15.9815 11.3197 15.8176 11.1296 15.6993C10.7484 15.4619 10.703 15.1571 10.8411 14.789C10.92 14.5781 10.9222 14.3947 10.8486 14.1972C10.7564 13.9491 10.7145 13.7001 10.9059 13.4822C11.0087 13.3652 11.13 13.2585 11.2606 13.1757C11.3647 13.1092 11.4168 13.0246 11.4481 12.9161C11.4719 12.8337 11.4812 12.7455 11.5156 12.668C11.6034 12.47 11.7305 12.2999 11.9577 12.2587C12.109 12.2312 12.266 12.2255 12.4205 12.225C12.536 12.225 12.6247 12.194 12.7116 12.1129C13.0209 11.8241 13.4493 11.7634 13.7656 12.0425C13.9672 12.2201 14.1869 12.2888 14.4463 12.2542C14.7525 12.2135 15.0119 12.4323 15.0873 12.7203C15.1539 12.975 15.255 13.1761 15.4923 13.2975C15.5329 13.3183 15.5704 13.3471 15.6039 13.3781C15.8611 13.6142 15.862 13.9079 15.7451 14.1976C15.6591 14.4102 15.6648 14.5932 15.7513 14.7996C15.8002 14.9166 15.8126 15.0583 15.8064 15.1868C15.7932 15.4495 15.6167 15.6041 15.4067 15.7317C15.3291 15.7786 15.2369 15.8358 15.202 15.9115C15.1138 16.1042 15.0083 16.3062 14.9929 16.5109C14.9611 16.9383 14.9832 17.3703 14.9832 17.8026H16.5374V7.785C15.7363 7.785 14.9448 7.785 14.1529 7.78411C14.0801 7.78411 14.0069 7.77747 13.9345 7.76817C13.8053 7.75178 13.7347 7.67115 13.7166 7.54579C13.7065 7.47314 13.7029 7.39916 13.7029 7.32607C13.702 6.58407 13.7025 5.84163 13.7025 5.09964V4.92953H7.21114V4.92998ZM15.2011 13.8663C15.1835 13.8494 15.1773 13.8415 15.1694 13.8357C14.9523 13.6855 14.7083 13.5628 14.6086 13.2913C14.572 13.1907 14.5235 13.0915 14.5072 12.9878C14.4922 12.8913 14.4428 12.8859 14.3691 12.8846C14.2341 12.8824 14.0867 12.9076 13.9676 12.8616C13.7695 12.7845 13.5851 12.6667 13.4038 12.5519C13.3143 12.4952 13.2512 12.4873 13.1713 12.5595C12.8951 12.8093 12.5722 12.9214 12.1985 12.8908C12.1619 12.8877 12.0927 12.9519 12.083 12.9949C12.004 13.344 11.8222 13.6084 11.4993 13.7728C11.4137 13.8162 11.3894 13.9008 11.4318 13.9872C11.5902 14.3088 11.584 14.6335 11.4468 14.9569C11.3916 15.0867 11.4216 15.1638 11.5434 15.2244C11.8496 15.3777 12.0124 15.6431 12.0763 15.9678C12.1006 16.0909 12.1527 16.1179 12.2616 16.1082C12.5996 16.0767 12.9 16.1538 13.1484 16.4037C13.2512 16.5073 13.3548 16.4759 13.4629 16.382C13.5604 16.2969 13.6729 16.2088 13.7934 16.1764C13.9734 16.1281 14.1657 16.1219 14.3536 16.1095C14.4423 16.1038 14.4829 16.0923 14.5089 15.9873C14.5707 15.7357 14.6536 15.4863 14.8848 15.3272C14.9889 15.2559 15.093 15.1841 15.206 15.1062C14.9841 14.6893 14.9854 14.2734 15.2007 13.8663H15.2011ZM12.2621 16.7492V19.5595C12.5303 19.392 12.7906 19.2388 13.0407 19.0704C13.2066 18.9588 13.361 18.9539 13.5243 19.0607C13.6473 19.1409 13.7687 19.2237 13.8931 19.3017C14.0369 19.3916 14.1838 19.4771 14.3444 19.5737V16.7479C14.1423 16.7226 13.9853 16.7576 13.8163 16.894C13.4272 17.2081 13.1484 17.213 12.7641 16.8949C12.6088 16.7665 12.461 16.7151 12.2621 16.7492ZM16.0504 7.14666C15.4769 6.57034 14.9069 5.99756 14.3439 5.43232V7.14666H16.0504Z" fill="#4E66E3"/>
<path d="M11.8712 9.37929C10.7343 9.37929 9.597 9.37929 8.46011 9.37929C8.23291 9.37929 8.11423 9.26943 8.11512 9.06123C8.11556 8.8579 8.23644 8.74804 8.46673 8.74804C9.75053 8.74716 11.0343 8.74804 12.3181 8.74804C13.2927 8.74804 14.2672 8.7476 15.2422 8.74804C15.5144 8.74804 15.5986 8.84993 15.6375 8.96643C15.7045 9.16843 15.5598 9.37664 15.3459 9.37841C14.9947 9.38151 14.6435 9.37929 14.2928 9.37929C13.4859 9.37929 12.679 9.37929 11.8721 9.37929H11.8712Z" fill="#4E66E3"/>
<path d="M11.258 10.9714C10.3514 10.9714 9.44479 10.9731 8.53819 10.9687C8.43893 10.9683 8.33261 10.9501 8.24261 10.9098C8.09306 10.8433 8.09438 10.6923 8.12129 10.5634C8.146 10.4447 8.23908 10.3649 8.36967 10.3512C8.43187 10.3445 8.49452 10.3397 8.55716 10.3397C10.3598 10.3392 12.1628 10.3392 13.9654 10.3397C14.1229 10.3397 14.269 10.349 14.366 10.5133C14.4851 10.7144 14.3038 10.9603 14.1194 10.9665C14.0669 10.9683 14.0149 10.9714 13.9624 10.9714C13.061 10.9714 12.1597 10.9714 11.258 10.9714Z" fill="#4E66E3"/>
<path d="M10.4374 7.78501C9.79862 7.78501 9.15937 7.78811 8.52055 7.7819C8.42306 7.78102 8.31894 7.75134 8.23027 7.70926C8.0785 7.63705 8.08645 7.47492 8.12747 7.36063C8.15747 7.27646 8.28012 7.21887 8.37188 7.16749C8.41688 7.14224 8.48438 7.1542 8.54173 7.1542C9.8145 7.15375 11.0873 7.15287 12.3596 7.15597C12.45 7.15597 12.5475 7.17236 12.6287 7.21001C12.7655 7.27336 12.8162 7.41334 12.7641 7.53915C12.7244 7.63395 12.6146 7.70571 12.5237 7.76994C12.4836 7.79829 12.4121 7.78545 12.3547 7.78545C11.7159 7.78633 11.0767 7.78589 10.4379 7.78545L10.4374 7.78501Z" fill="#4E66E3"/>
<path d="M15.356 10.9594C15.1702 10.9607 15.037 10.8358 15.0366 10.6595C15.0361 10.481 15.1649 10.3587 15.3538 10.3587C15.5311 10.3587 15.6595 10.4788 15.6657 10.6507C15.6714 10.8106 15.5236 10.9581 15.356 10.9594Z" fill="#4E66E3"/>
</g>
<defs>
<clipPath id="clip0_36_1604">
<rect width="10.6105" height="16.1684" fill="white" transform="translate(6.56836 4.29474)"/>
</clipPath>
</defs>
</svg>
