<svg width="100" height="86" viewBox="0 0 100 86" fill="none" xmlns="http://www.w3.org/2000/svg">
<path d="M45.3389 1.67975V39.2084H1.61011V35.1875H29.8933H37.5302H40.6537V25.9528V1.67975H45.3389Z" fill="#E9EDF5"/>
<path d="M98.4383 35.1875V39.2084H54.7095V1.67975H59.3947V25.8053V32.5069V35.1875H70.1551H98.4383Z" fill="#E9EDF5"/>
<path d="M59.3947 51.2712V60.5059V84.7789H54.7095V47.2503H98.4383V51.2712H70.1551H62.5182H59.3947Z" fill="#E9EDF5"/>
<path d="M45.3389 47.2503V84.7789H40.6537V60.5059V53.9518V51.2712H29.8933H1.61011V47.2503H45.3389Z" fill="#E9EDF5"/>
<path d="M40.6538 53.9518V60.5059L12.3706 84.7789H7.85718C6.95137 84.7789 6.07677 84.6047 5.2959 84.2964L40.6538 53.9518Z" fill="#E9EDF5"/>
<path d="M40.6537 51.2712V53.9518L5.2958 84.2964C3.12498 83.4655 1.61011 81.589 1.61011 79.4177V75.5442L29.8933 51.2712H40.6537Z" fill="#E9EDF5"/>
<path d="M98.4382 75.5442V79.4177C98.4382 80.1951 98.2352 80.9457 97.876 81.6158L62.5181 51.2712H70.155L98.4382 75.5442Z" fill="#E9EDF5"/>
<path d="M62.518 51.2712L97.8759 81.6158C96.9076 83.4788 94.7212 84.7789 92.1911 84.7789H87.6777L59.3945 60.5059V51.2712H62.518Z" fill="#E9EDF5"/>
<path d="M98.4381 7.04099V10.9145L70.155 35.1875H59.3945V32.5069L94.7524 2.16226C96.9232 2.99325 98.4381 4.86969 98.4381 7.04099Z" fill="#E9EDF5"/>
<path d="M94.7524 2.16226L59.3945 32.5069V25.8053H59.5663L87.6777 1.67975H92.1911C93.097 1.67975 93.9715 1.85399 94.7524 2.16226Z" fill="#E9EDF5"/>
<path d="M37.5302 35.1875H29.8933L1.61011 10.9145V7.04097C1.61011 6.26359 1.81311 5.51302 2.17231 4.84286L37.5302 35.1875Z" fill="#E9EDF5"/>
<path d="M40.6537 25.9528V35.1875H37.5303L2.17236 4.84288C3.14064 2.97985 5.32711 1.67975 7.85713 1.67975H12.3706L40.6537 25.9528Z" fill="#E9EDF5"/>
<path d="M98.4382 39.2084V47.2503H54.7094V84.7789H45.3389V47.2503H1.61011V39.2084H45.3389V1.67975H54.7094V39.2084H98.4382Z" fill="#E21743"/>
<path d="M29.8933 51.2712L1.61011 75.5442V51.2712H29.8933Z" fill="#2448A8"/>
<path d="M40.6538 60.5059V84.7789H12.3706L40.6538 60.5059Z" fill="#2448A8"/>
<path d="M87.6777 84.7789H59.3945V60.5059L87.6777 84.7789Z" fill="#2448A8"/>
<path d="M98.4382 51.2712V75.5442L70.155 51.2712H98.4382Z" fill="#2448A8"/>
<path d="M98.4382 10.9145V35.1875H70.155L98.4382 10.9145Z" fill="#2448A8"/>
<path d="M87.6777 1.67975L59.5663 25.8053H59.3945V1.67975H87.6777Z" fill="#2448A8"/>
<path d="M29.8933 35.1875H1.61011V10.9145L29.8933 35.1875Z" fill="#2448A8"/>
<path d="M40.6538 1.67975V25.9528L12.3706 1.67975H40.6538Z" fill="#2448A8"/>
<path d="M98.4382 35.1875V23.1247C98.4382 27.4271 97.3606 31.5016 95.4241 35.1875H98.4382Z" fill="#1F3D8F"/>
<path d="M4.62426 35.1875H1.61011V39.2084H7.16991C6.20163 37.9351 5.34269 36.5948 4.60868 35.1875H4.62426Z" fill="#DCE1EB"/>
<path d="M92.8784 39.2084H98.4382V35.1875H95.4241C94.6901 36.5948 93.8311 37.9351 92.8628 39.2084H92.8784Z" fill="#DCE1EB"/>
<path d="M74.3406 51.2712H98.4383V47.2503H83.8204C80.9468 48.9793 77.7608 50.3464 74.3406 51.2712Z" fill="#DCE1EB"/>
<path d="M59.3947 52.6115H54.7095V84.7789H59.3947V60.5059V52.6115Z" fill="#CDD2E1"/>
<path d="M40.6538 52.6115V53.9518V60.5059V84.7789H45.339V52.6115H40.6538Z" fill="#CDD2E1"/>
<path d="M16.228 47.2503H1.61011V51.2712H25.7078C22.2876 50.3464 19.1016 48.9793 16.228 47.2503Z" fill="#DCE1EB"/>
<path d="M40.6538 53.9518L5.2959 84.2964C6.07677 84.6047 6.95137 84.7789 7.85718 84.7789H12.3706L40.6538 60.5059V53.9518Z" fill="#CDD2E1"/>
<path d="M40.6537 52.6115H35.9685C33.5946 52.6115 31.2676 52.4105 29.0343 52.0084L1.61011 75.5442V79.4177C1.61011 81.589 3.12498 83.4654 5.2958 84.2964L40.6537 53.9518V52.6115Z" fill="#CDD2E1"/>
<path d="M64.0798 52.6115L97.876 81.6158C98.2352 80.9456 98.4382 80.1951 98.4382 79.4177V75.5442L71.014 52.0084C68.7807 52.3971 66.4537 52.6115 64.0798 52.6115Z" fill="#CDD2E1"/>
<path d="M59.3945 52.6115V60.5059L87.6777 84.7789H92.1911C94.7212 84.7789 96.9076 83.4788 97.8759 81.6158L64.0798 52.6115H59.3945Z" fill="#CDD2E1"/>
<path d="M1.61011 23.1247V35.1875H4.62426C2.70332 31.5016 1.61011 27.4271 1.61011 23.1247Z" fill="#1F3D8F"/>
<path d="M59.3947 79.4177H54.7095V84.7789H59.3947V79.4177Z" fill="#BEC3D2"/>
<path d="M45.339 79.4177H40.6538V84.7789H45.339V79.4177Z" fill="#BEC3D2"/>
<path d="M54.7093 79.4177H45.3389V84.7789H54.7093V79.4177Z" fill="#8B0B27"/>
<path d="M18.6176 79.4177L12.3706 84.7789H40.6538V79.4177H18.6176Z" fill="#172E6B"/>
<path d="M59.3945 79.4177V84.7789H87.6777L81.4307 79.4177H59.3945Z" fill="#172E6B"/>
<path d="M13.1826 79.4177H7.85708C4.93662 79.4177 2.50031 77.6887 1.81314 75.37L1.61011 75.5442V79.4177C1.61011 81.3343 2.79702 83.0231 4.57741 83.9748C4.81167 84.0954 5.04592 84.2026 5.2958 84.2964C5.59253 84.4171 5.90489 84.4841 6.23285 84.5645C6.76385 84.6851 7.29485 84.7789 7.85708 84.7789H12.3705L18.6175 79.4177H13.1826Z" fill="#BEC3D2"/>
<path d="M98.235 75.37C97.9071 76.5092 97.1418 77.4877 96.1111 78.2114C95.6894 78.5063 95.2521 78.7475 94.7524 78.9486C94.2058 79.163 93.6279 79.2837 93.0188 79.3641C92.7377 79.3909 92.4722 79.4311 92.1911 79.4311H81.4307L87.6776 84.7923H92.1911C94.4244 84.7923 96.3922 83.7737 97.501 82.2458C97.6416 82.0447 97.7665 81.8437 97.8759 81.6292C98.0164 81.3746 98.0945 81.1065 98.1882 80.825C98.3287 80.3693 98.4381 79.9136 98.4381 79.4311V75.5576L98.235 75.3834V75.37Z" fill="#BEC3D2"/>
<path d="M45.339 1.67975H40.6538V7.04099H45.339V1.67975Z" fill="#F7FAFF"/>
<path d="M59.3947 1.67975H54.7095V7.04099H59.3947V1.67975Z" fill="#F7FAFF"/>
<path d="M94.7524 2.16226C93.9715 1.85399 93.0969 1.67975 92.1911 1.67975H87.6776L81.4307 7.04099H92.1911C95.1116 7.04099 97.5479 8.76999 98.235 11.0887L98.4381 10.9145V7.04099C98.4381 4.86969 96.9232 2.99325 94.7524 2.16226Z" fill="#F7FAFF"/>
<path d="M12.3705 1.67975H7.85708C5.32706 1.67975 3.14059 2.97985 2.17231 4.84288C1.81311 5.51303 1.61011 6.26361 1.61011 7.04099V10.9145L1.81314 11.0887C2.28166 9.49375 3.57788 8.18025 5.2958 7.5235C6.07667 7.21523 6.93565 7.04099 7.85708 7.04099H18.6175L12.3705 1.67975Z" fill="#F7FAFF"/>
<path d="M54.7093 1.67975H45.3389V7.04099H54.7093V1.67975Z" fill="#EA5172"/>
<path d="M81.4307 7.04099L87.6777 1.67975H59.3945V7.04099H81.4307Z" fill="#376DFF"/>
<path d="M40.6538 7.04099V1.67975H12.3706L18.6176 7.04099H40.6538Z" fill="#376DFF"/>
<path d="M98.4383 39.2084V35.1875H70.1551H59.3947V32.5069V25.8053V1.67975H54.7095" stroke="black" stroke-width="2" stroke-linejoin="round"/>
<path d="M54.7095 84.7789H59.3947V60.5059V51.2712H62.5182H70.1551H98.4383V47.2503" stroke="black" stroke-width="2" stroke-linejoin="round"/>
<path d="M1.61011 47.2503V51.2712H29.8933H40.6537V53.9518V60.5059V84.7789H45.3389" stroke="black" stroke-width="2" stroke-linejoin="round"/>
<path d="M45.3389 1.67975H40.6537V25.9528V35.1875H37.5302H29.8933H1.61011V39.2084" stroke="black" stroke-width="2" stroke-linejoin="round"/>
<path d="M29.8933 35.1875L1.61011 10.9145" stroke="black" stroke-width="2" stroke-linejoin="round"/>
<path d="M87.6777 84.7789L59.3945 60.5059" stroke="black" stroke-width="2" stroke-linejoin="round"/>
<path d="M70.155 51.2712L98.4382 75.5442" stroke="black" stroke-width="2" stroke-linejoin="round"/>
<path d="M12.3706 1.67975L40.6538 25.9528" stroke="black" stroke-width="2" stroke-linejoin="round"/>
<path d="M70.155 35.1875L98.4382 10.9145" stroke="black" stroke-width="2" stroke-linejoin="round"/>
<path d="M12.3706 84.7789L40.6538 60.5059" stroke="black" stroke-width="2" stroke-linejoin="round"/>
<path d="M29.8933 51.2712L1.61011 75.5442" stroke="black" stroke-width="2" stroke-linejoin="round"/>
<path d="M87.6778 1.67975L59.5664 25.8053" stroke="black" stroke-width="2" stroke-linejoin="round"/>
<path d="M54.7095 84.7789V47.2503H98.4383" stroke="black" stroke-width="2" stroke-linejoin="round"/>
<path d="M9.41895 47.2503H45.339V84.7789" stroke="black" stroke-width="2" stroke-linejoin="round"/>
<path d="M1.61011 47.2503H6.29534" stroke="black" stroke-width="2" stroke-linejoin="round"/>
<path d="M45.3389 1.67975V39.2084H1.61011" stroke="black" stroke-width="2" stroke-linejoin="round"/>
<path d="M62.5182 39.2084H54.7095V1.67975" stroke="black" stroke-width="2" stroke-linejoin="round"/>
<path d="M68.7651 39.2084H65.6416" stroke="black" stroke-width="2" stroke-linejoin="round"/>
<path d="M98.4383 39.2084H71.8887" stroke="black" stroke-width="2" stroke-linejoin="round"/>
<path d="M12.5422 13.7425L37.5301 35.1875" stroke="black" stroke-width="2" stroke-linejoin="round"/>
<path d="M1.61011 4.36038L2.17231 4.84289L9.41882 11.0619" stroke="black" stroke-width="2" stroke-linejoin="round"/>
<path d="M59.3945 32.5069L94.7524 2.16226L95.3146 1.67975" stroke="black" stroke-width="2" stroke-linejoin="round"/>
<path d="M40.6537 53.9518L5.29585 84.2964L4.73364 84.7789" stroke="black" stroke-width="2" stroke-linejoin="round"/>
<path d="M62.5181 51.2712L97.876 81.6158L98.4382 82.0983" stroke="black" stroke-width="2" stroke-linejoin="round"/>
<path d="M78.1355 84.7789H7.85708C4.40563 84.7789 1.61011 82.3798 1.61011 79.4177V7.04099C1.61011 4.0789 4.40563 1.67975 7.85708 1.67975H10.9806" stroke="black" stroke-width="2" stroke-linejoin="round"/>
<path d="M25.0364 1.67975H92.1913C95.6428 1.67975 98.4383 4.0789 98.4383 7.04099V79.4177C98.4383 82.3798 95.6428 84.7789 92.1913 84.7789H81.2591" stroke="black" stroke-width="2" stroke-linejoin="round"/>
<path d="M18.7893 1.67975H21.9128" stroke="black" stroke-width="2" stroke-linejoin="round"/>
<path d="M15.6657 1.67975H10.9805" stroke="black" stroke-width="2" stroke-linejoin="round"/>
</svg>
